# xmcd
#
# Track frame offsets:
#	150
#	21405
#	38022
#	57730
#	76090
#	94392
#	121082
#	134807
#	151497
#	162985
#	180487
#	202492
#
# Disc length: 3070 seconds
#
# Revision: 0
# Processed by: cddbd v1.5.1PL0 Copyright (c) Steve Scherf et al.
# Submitted via: dBpowerAMP V4.0
#
DISCID=ab0bfc0c
DTITLE=Blue Jeans - (same)
DYEAR=1995
DGENRE=blues
TTITLE0=A Woman Like You
TTITLE1=Got to Move
TTITLE2=Frigidaire Blues
TTITLE3=Trouble in Mind
TTITLE4=Cachaceiro
TTITLE5=Lefty God
TTITLE6=Mystic Mountain
TTITLE7=Crossroads
TTITLE8=Blue Jeans Shuffle
TTITLE9=Forró Blues
TTITLE10=Woke Up This Morning
TTITLE11=Back to My Sweet Baby's Arms
EXTD=
EXTT0=
EXTT1=
EXTT2=
EXTT3=
EXTT4=
EXTT5=
EXTT6=
EXTT7=
EXTT8=
EXTT9=
EXTT10=
EXTT11=
PLAYORDER=
